<svg xmlns="http://www.w3.org/2000/svg" style="width:0; height:0; visibility:hidden;">
    <symbol id="icon_arrow-left" viewBox="0 0 40 73">
       <path id="arrow-left.svg" d="M38,73L0,36.5L38,0l2,2L4.1,36.5L40,71L38,73z"/> 
    </symbol>
    <symbol id="icon_arrow-right" viewBox="0 0 40 73">
       <path id="arrow-right.svg" d="M2,73l38-36.5L2,0L0,2l35.9,34.5L0,71L2,73z"/> 
    </symbol>
    <symbol id="icon_cart" viewBox="0 0 18 24">
       <path id="cart.svg" d="M15,3h-1.5c0-1.7-2-3-4.5-3S4.5,1.3,4.5,3H3C1.3,3,0,4.3,0,6l0,0v15c0,1.7,1.3,3,3,3h12c1.7,0,3-1.3,3-3V6
	C18,4.3,16.7,3,15,3z M9,1.5c1.7,0,3,0.5,3,1.5H6C6,2,7.3,1.5,9,1.5z M16.5,21c0,0.8-0.7,1.5-1.5,1.5H3c-0.8,0-1.5-0.7-1.5-1.5v-1.5
	h15V21z M16.5,18h-15V6c0-0.8,0.7-1.5,1.5-1.5l0,0h1.5V9H6V4.5h6V9h1.5V4.5H15c0.8,0,1.5,0.7,1.5,1.5V18z"/> 
    </symbol>
    <symbol id="icon_case" viewBox="0 0 50.9 35.7">
       <path id="case.svg" d="M8.3,12.9c1.1-2.1,3.3-3.5,5.7-3.6h26.2V7.6c0-1.4-1.1-2.5-2.5-2.5H26.9V3.7c0-2-1.6-3.7-3.7-3.7H17
	c-2,0-3.7,1.7-3.7,3.7v1.4H2.5C1.1,5.2,0,6.3,0,7.6v22.2L8.3,12.9z M15.7,3.7c0-0.3,0.1-0.6,0.4-0.9c0.2-0.2,0.5-0.4,0.9-0.4h6.3
	c0.7,0,1.2,0.6,1.2,1.2c0,0,0,0,0,0v1.4h-8.8V3.7z M41.2,33.4c-0.7,1.3-2.1,2.1-3.5,2.2H2.3c-0.8,0.1-1.5-0.4-1.6-1.2
	c-0.1-0.4,0-0.7,0.2-1L10.5,14c0.7-1.3,2.1-2.1,3.5-2.2h35.3c0.8-0.1,1.5,0.4,1.6,1.2c0.1,0.4,0,0.7-0.2,1L41.2,33.4z"/> 
    </symbol>
    <symbol id="icon_chain" viewBox="0 0 24.6 24.6">
       <path id="chain.svg" d="M22.8,1.8c-2.4-2.4-6.3-2.4-8.7,0L9.4,6.5c1.6-0.5,3.4-0.3,4.9,0.4l2.5-2.4c1-0.9,2.5-0.9,3.5,0.1
	c0.9,0.9,0.9,2.4,0,3.4L17.1,11l-2,2c-0.9,1-2.5,1-3.4,0c0,0,0,0,0,0L9,15.7c0.6,0.6,1.3,1.1,2.1,1.4c2.1,0.8,4.4,0.5,6.2-0.9
	c0.2-0.1,0.4-0.3,0.5-0.5l3.2-3.2l1.9-1.9C25.2,8.1,25.2,4.2,22.8,1.8C22.8,1.8,22.8,1.8,22.8,1.8z M10.3,17.8l-2.4,2.4
	c-1,0.9-2.5,0.9-3.5-0.1c-0.9-0.9-0.9-2.4,0-3.4l5.1-5.1c1-0.9,2.5-0.9,3.5,0L15.7,9c-0.6-0.6-1.3-1.1-2.1-1.4
	c-2.2-0.9-4.7-0.4-6.4,1.1C7.1,8.8,7,8.9,6.9,9l-5.1,5.1c-2.4,2.4-2.4,6.3,0,8.7s6.3,2.4,8.7,0l0,0l4.6-4.7
	C12.8,18.7,12.3,18.6,10.3,17.8L10.3,17.8z"/> 
    </symbol>
    <symbol id="icon_circle-outline" viewBox="0 0 17 17">
      <circle id="circle-outline.svg" cx="8.5" cy="8.5" r="7.5" fill="#fff" fill-opacity="0" stroke-linejoin="round" stroke-width="2"/>
    </symbol>
    <symbol id="icon_circle" viewBox="0 0 10 10">
       <circle id="slider-control.svg" cx="5" cy="5" r="5"/> 
    </symbol>
    <symbol id="icon_cogwheel" viewBox="0 0 43.6 43.6">
       <path id="cogwheel.svg" d="M43.6,21.8c0-1.7-1.1-3.2-2.6-3.9c-2.5-0.6-4-3-3.5-5.5c0.1-0.5,0.3-1,0.6-1.4C39,8.8,38,6.4,35.9,5.5
	c-1-0.4-2.2-0.4-3.3,0c-1.3,0.6-2.8,0.8-4.2,0.3c-1.3-0.7-2.3-1.9-2.7-3.2c-0.9-2.1-3.3-3.2-5.4-2.3c-1,0.4-1.9,1.3-2.3,2.3
	c-0.6,2.5-3.1,4-5.6,3.5c-0.5-0.1-1-0.3-1.4-0.6C8.8,4.6,6.4,5.6,5.5,7.7C5,8.7,5,9.9,5.5,11c1.4,2.2,0.7,5-1.5,6.4
	c-0.4,0.3-0.9,0.5-1.4,0.6c-2.1,0.9-3.2,3.3-2.3,5.4c0.4,1.1,1.3,1.9,2.3,2.3c2.5,0.6,4,3,3.5,5.5c-0.1,0.5-0.3,1-0.6,1.4
	c-0.9,2.1,0.1,4.6,2.2,5.5c1,0.4,2.2,0.4,3.3,0c2.2-1.4,5-0.7,6.4,1.5c0.3,0.4,0.5,0.9,0.6,1.4c0.9,2.1,3.3,3.2,5.4,2.3
	c1-0.4,1.9-1.3,2.3-2.3c0.6-2.5,3.1-4.1,5.5-3.5c0.5,0.1,1,0.3,1.4,0.6c2.1,0.9,4.6-0.1,5.5-2.2c0.4-1,0.4-2.2,0-3.3
	c-1.4-2.2-0.7-5,1.4-6.4c0.4-0.3,0.9-0.5,1.4-0.6C42.5,25,43.5,23.5,43.6,21.8z M21.8,29.8c-4.4,0-8-3.6-8-8c0-4.4,3.6-8,8-8
	c4.4,0,8,3.6,8,8l0,0C29.8,26.2,26.2,29.8,21.8,29.8C21.8,29.8,21.8,29.8,21.8,29.8z"/> 
    </symbol>
    <symbol id="icon_logo" viewBox="0 0 63 55.1">
       <path id="logo.svg" d="M36.8,10.7H26.3l5.3,9.2L36.8,10.7z M25,11.5l-5.3,9.2h10.5L25,11.5z M43.3,20.7l-5.3-9.2l-5.3,9.2H43.3z
	 M32.8,22.2l5.3,9.2l5.3-9.2H32.8z M19.7,22.2l5.3,9.2l5.3-9.2H19.7z M13.1,32.2h10.5L18.4,23L13.1,32.2z M49.9,32.2L44.7,23
	l-5.3,9.2H49.9L49.9,32.2z M31.5,0l-5.3,9.2h10.5L31.5,0z M44.7,42.9l5.3-9.2H39.4L44.7,42.9z M18.4,42.9l5.3-9.2H13.1L18.4,42.9z
	 M6.6,43.6h10.5l-5.3-9.2L6.6,43.6z M56.5,43.6l-5.3-9.2L46,43.6H56.5z M46,45.2l5.3,9.2l5.3-9.2H46z M32.8,45.2l5.3,9.2l5.3-9.2
	H32.8L32.8,45.2z M11.8,54.4l5.3-9.2H6.6L11.8,54.4z M0,55.1h10.5l-5.3-9.2L0,55.1z M26.3,55.1h10.5l-5.3-9.2L26.3,55.1z M39.4,55.1
	h10.5l-5.3-9.2L39.4,55.1z M57.8,45.9l-5.3,9.2H63L57.8,45.9z"/> 
    </symbol>
    <symbol id="icon_lupa" viewBox="0 0 25.1 24.7">
       <path id="lupa.svg" d="M10.5,4.2C9.8,4.1,9.1,4.6,9.1,5.4s0.5,1.3,1.2,1.4c0.1,0,0.2,0,0.2,0c1.6,0,3,0.9,3.7,2.3
	c0.3,0.6,1.1,0.9,1.8,0.6c0.6-0.3,0.9-1.1,0.6-1.7c0,0,0,0,0,0C15.4,5.6,13.1,4.2,10.5,4.2z M24.6,22l-4.4-4.3
	c1.3-1.8,2.1-4.1,2.1-6.4c0.1-6.2-4.9-11.2-11-11.3S0.1,4.9,0,11c-0.1,6.2,4.9,11.2,11,11.3c2.5,0,5-0.8,6.9-2.3l4.3,4.3
	c0.6,0.6,1.7,0.6,2.3,0C25.3,23.6,25.3,22.6,24.6,22C24.7,22,24.6,22,24.6,22L24.6,22z M2.6,11.3c0.1-4.7,4-8.5,8.7-8.4
	c4.6,0.1,8.3,3.8,8.4,8.4c0,2.5-1.1,4.8-3,6.4c-3.6,3-9,2.6-12.1-1C3.3,15.2,2.6,13.3,2.6,11.3L2.6,11.3z"/> 
    </symbol>
    <symbol id="icon_pencil" viewBox="0 0 47.6 47.6">
       <path id="pencil.svg" d="M47.1,16.6c-0.6-0.6-1.6-0.6-2.2,0L31,30.4L11.6,39l-3-3l8.6-19.5L31,2.7c0.6-0.6,0.6-1.6,0-2.2
	c-0.6-0.6-1.6-0.6-2.2,0L14.5,14.7L0,47.6l32.9-14.5l14.3-14.3C47.8,18.2,47.8,17.2,47.1,16.6z M27,27.6c0.6,0.6,1.6,0.6,2.3,0
	l13.3-13.3c0.6-0.6,0.6-1.6,0-2.3c-0.6-0.6-1.6-0.6-2.2,0L27,25.4C26.3,26,26.3,27,27,27.6L27,27.6z M23.5,24.1
	c0.6,0.6,1.6,0.6,2.2,0l13.3-13.3c0.6-0.6,0.6-1.6,0-2.3c-0.6-0.6-1.6-0.6-2.2,0L23.5,21.9C22.9,22.5,22.9,23.5,23.5,24.1L23.5,24.1
	z M20,20.6c0.6,0.6,1.6,0.6,2.2,0c0,0,0,0,0,0L35.6,7.3c0.6-0.6,0.6-1.6,0-2.3c-0.6-0.6-1.6-0.6-2.2,0L20,18.4
	c-0.7,0.6-0.8,1.5-0.3,2.2C19.8,20.6,19.9,20.7,20,20.6L20,20.6z"/> 
    </symbol>
    <symbol id="icon_play" viewBox="0 0 70.1 70.1">
       <path id="play.svg" d="M30,51.9c-1.1,0-2.1-0.9-2.1-2c0,0,0,0,0,0V20.4c0-1.1,0.9-2.1,2.1-2.1c0.5,0,0.9,0.2,1.3,0.5L49,33.5
	c0.9,0.7,1,2,0.3,2.9c-0.1,0.1-0.2,0.2-0.3,0.3L31.3,51.5C30.9,51.8,30.5,51.9,30,51.9z M32.1,24.7v20.7l12.4-10.4L32.1,24.7z
	 M35,70.1c-6,0-11.9-1.5-17.1-4.5c-1-0.5-1.4-1.8-0.8-2.8c0.5-1,1.8-1.4,2.8-0.8c0,0,0,0,0,0c14.9,8.4,33.7,3.1,42.1-11.8
	s3.1-33.7-11.8-42.1C35.4-0.2,16.5,5.1,8.2,19.9C1.3,32,3.4,47.2,13.2,57c0.8,0.8,0.8,2.1,0,2.9c-0.8,0.8-2.1,0.8-2.9,0c0,0,0,0,0,0
	C-3.4,46.2-3.4,24,10.2,10.3s35.9-13.7,49.6-0.1c13.7,13.7,13.7,35.9,0.1,49.6C53.3,66.4,44.3,70.1,35,70.1L35,70.1z"/> 
    </symbol>
    <symbol id="icon_search" viewBox="0 0 24 24.3">
       <path id="search.svg" d="M23.8,23l-6.2-6.1c1.7-1.8,2.6-4.2,2.6-6.7C20.3,4.7,15.8,0.1,10.3,0C4.7-0.1,0.1,4.4,0,9.9
	s4.4,10.2,9.9,10.3c0.1,0,0.1,0,0.2,0c2.3,0,4.6-0.8,6.4-2.2l6.2,6.1c0.3,0.3,0.8,0.3,1.1,0C24.1,23.8,24.1,23.3,23.8,23
	C23.8,23,23.8,23,23.8,23z M10.1,18.7c-4.6-0.1-8.3-3.9-8.3-8.5c0.1-4.6,3.9-8.3,8.5-8.3c4.6,0.1,8.3,3.8,8.3,8.4
	C18.6,14.9,14.8,18.7,10.1,18.7z"/> 
    </symbol>
    <symbol id="icon_stack" viewBox="0 0 42.9 39.2">
       <path id="stack.svg" d="M21.4,0L0,11.6l21.4,11.6l21.4-11.6L21.4,0z M21.4,26.8L4,17.4l-4,2.2l21.4,11.6l21.4-11.6l-4-2.2L21.4,26.8
	z M21.4,34.9L4,25.5l-4,2.2l21.4,11.6l21.4-11.6l-4-2.2L21.4,34.9z"/> 
    </symbol></svg>